<svg id="svg" version="1.1" xmlns="http://www.w3.org/2000/svg" xmlns:xlink="http://www.w3.org/1999/xlink" width="400" height="390.00000000000006" viewBox="0, 0, 400,390.00000000000006"><g id="svgg"><path id="path0" d="M152.976 1.138 C 152.976 1.764,153.195 2.361,153.463 2.464 C 153.732 2.567,151.405 2.625,148.293 2.594 C 135.111 2.460,133.073 2.946,133.073 6.221 L 133.073 7.610 128.293 7.614 C 122.438 7.619,119.206 8.753,118.765 10.957 C 118.452 12.520,117.624 12.790,113.640 12.631 C 111.376 12.541,110.481 12.630,110.664 12.927 C 110.843 13.216,110.558 13.271,109.770 13.098 C 108.167 12.746,107.686 13.478,107.805 16.091 C 107.896 18.115,107.854 18.230,107.110 17.947 C 105.858 17.471,98.837 17.690,98.305 18.222 C 98.050 18.477,97.756 19.574,97.651 20.660 L 97.462 22.634 94.877 22.651 C 89.376 22.687,88.208 23.232,87.907 25.900 L 87.707 27.673 85.317 27.788 C 83.760 27.862,82.910 28.073,82.878 28.390 C 82.851 28.659,82.807 29.724,82.780 30.757 L 82.732 32.637 79.707 32.642 C 74.006 32.651,73.111 33.114,72.891 36.170 C 72.793 37.527,72.678 37.688,71.909 37.541 C 71.430 37.450,70.727 37.508,70.348 37.670 C 69.969 37.833,69.307 37.984,68.878 38.007 C 68.254 38.040,68.119 38.283,68.206 39.220 C 68.293 40.154,68.228 40.272,67.884 39.805 C 67.555 39.359,67.496 39.672,67.635 41.123 L 67.818 43.027 65.714 42.810 C 64.443 42.679,63.610 42.746,63.610 42.978 C 63.610 43.190,63.407 43.238,63.159 43.085 C 62.890 42.918,62.814 42.977,62.970 43.230 C 63.114 43.463,63.040 43.772,62.805 43.918 C 62.532 44.086,62.469 44.846,62.630 46.016 L 62.882 47.850 60.417 47.827 L 57.951 47.805 57.592 50.226 L 57.234 52.648 55.056 52.763 L 52.878 52.878 52.762 55.317 L 52.646 57.756 50.713 57.805 C 49.650 57.832,48.570 57.876,48.313 57.902 C 48.004 57.935,47.849 58.765,47.856 60.344 L 47.867 62.737 46.381 62.538 C 45.356 62.400,44.574 62.548,43.863 63.015 C 43.295 63.386,42.967 63.470,43.134 63.200 C 43.314 62.910,43.279 62.807,43.050 62.948 C 42.837 63.080,42.691 64.210,42.726 65.459 L 42.789 67.730 41.492 67.578 C 40.752 67.492,40.195 67.602,40.195 67.836 C 40.195 68.061,39.712 68.211,39.122 68.171 C 38.178 68.106,38.058 68.227,38.122 69.171 C 38.163 69.761,38.012 70.244,37.787 70.244 C 37.549 70.244,37.445 70.816,37.537 71.610 C 37.685 72.877,37.620 72.976,36.630 72.976 C 34.809 72.976,33.681 73.631,33.219 74.957 C 32.625 76.660,32.648 77.782,33.268 77.419 C 33.537 77.262,33.420 77.517,33.009 77.986 C 32.396 78.685,32.329 79.064,32.637 80.102 C 33.300 82.341,33.008 82.682,30.316 82.811 C 28.512 82.898,27.889 83.075,27.850 83.512 C 27.821 83.834,27.777 84.930,27.752 85.947 C 27.707 87.790,27.703 87.796,26.155 88.044 C 23.833 88.415,23.266 88.999,23.182 91.100 C 23.142 92.103,23.002 93.030,22.872 93.161 C 22.741 93.291,22.634 94.335,22.634 95.480 L 22.634 97.561 20.976 97.567 C 19.695 97.572,19.450 97.668,19.902 97.989 C 20.354 98.310,20.247 98.352,19.430 98.174 C 18.651 98.005,18.273 98.130,17.995 98.650 C 17.582 99.421,17.647 106.118,18.073 106.808 C 18.423 107.375,17.474 107.706,15.480 107.713 C 13.464 107.721,12.763 108.125,13.126 109.071 C 13.305 109.536,13.254 109.696,12.981 109.527 C 12.691 109.348,12.585 110.561,12.636 113.484 L 12.709 117.701 11.525 117.826 C 10.874 117.894,9.815 117.973,9.171 118.000 C 8.195 118.041,8.000 118.211,8.000 119.024 C 8.000 119.561,7.886 120.176,7.747 120.390 C 7.607 120.605,7.527 122.847,7.569 125.373 C 7.642 129.798,7.612 129.988,6.732 130.565 C 6.229 130.894,5.624 131.590,5.386 132.111 C 5.058 132.831,4.745 133.006,4.081 132.839 C 2.710 132.495,2.587 133.144,2.561 140.861 L 2.537 148.098 1.268 148.220 C 0.008 148.341,0.000 148.355,0.000 150.464 L 0.000 152.585 1.659 152.644 L 3.317 152.703 1.561 152.959 L -0.195 153.216 1.171 153.424 L 2.537 153.631 1.268 153.694 L 0.000 153.756 0.000 186.707 L 0.000 219.658 1.268 219.815 L 2.537 219.973 1.268 220.035 L 0.000 220.098 0.000 227.342 L 0.000 234.586 1.268 234.464 C 2.071 234.386,2.497 234.152,2.429 233.825 C 2.370 233.540,2.511 233.424,2.741 233.567 C 3.452 234.006,2.358 234.927,1.123 234.927 C 0.385 234.927,0.000 235.127,0.000 235.512 C 0.000 235.889,0.382 236.100,1.073 236.104 C 1.663 236.107,2.401 236.270,2.711 236.467 C 3.079 236.700,2.704 236.748,1.638 236.605 C 0.550 236.459,0.000 236.533,0.000 236.827 C 0.000 237.070,0.483 237.282,1.073 237.298 C 3.495 237.366,4.059 237.637,3.278 238.357 C 2.962 238.647,2.732 238.689,2.732 238.454 C 2.732 238.231,2.117 238.049,1.366 238.049 L 0.000 238.049 0.000 240.043 L 0.000 242.037 1.268 241.889 L 2.537 241.741 2.602 246.709 C 2.685 252.985,2.213 252.511,8.332 252.464 C 16.226 252.403,16.990 252.069,17.227 248.569 C 17.310 247.336,17.432 247.211,18.640 247.120 C 21.084 246.936,21.828 246.102,21.992 243.360 C 22.023 242.841,22.180 242.498,22.341 242.597 C 22.502 242.696,22.634 242.592,22.634 242.364 C 22.634 242.137,22.906 241.951,23.239 241.951 C 25.197 241.951,27.526 238.943,26.657 237.537 C 26.521 237.318,26.613 237.269,26.867 237.426 C 27.164 237.610,27.317 237.350,27.317 236.660 C 27.317 235.250,29.967 232.585,31.369 232.585 C 32.366 232.585,32.390 232.525,32.390 230.049 L 32.390 227.512 34.927 227.512 L 37.463 227.512 37.463 225.171 C 37.463 222.608,37.296 222.747,40.390 222.744 C 42.071 222.741,42.404 222.309,42.484 220.026 C 42.571 217.575,42.374 217.781,44.710 217.708 C 47.215 217.629,47.499 217.355,47.553 214.959 C 47.608 212.516,47.482 212.642,49.891 212.624 C 51.967 212.608,52.794 212.079,52.666 210.853 C 52.366 207.965,52.571 207.610,54.537 207.604 C 56.305 207.598,57.471 207.225,57.399 206.688 C 57.381 206.551,57.366 205.561,57.366 204.488 L 57.366 202.537 59.666 202.537 C 62.294 202.537,62.439 202.372,62.439 199.383 L 62.439 197.463 64.098 197.417 C 65.010 197.392,65.966 197.397,66.224 197.430 C 66.915 197.516,67.499 196.179,67.441 194.643 C 67.370 192.742,67.677 192.434,69.418 192.668 C 71.539 192.952,72.760 191.753,72.479 189.663 C 72.221 187.735,72.437 187.517,74.639 187.487 C 76.981 187.456,77.458 186.971,77.461 184.614 L 77.463 182.726 79.573 182.507 C 81.836 182.272,82.377 181.830,82.283 180.293 C 82.131 177.795,82.219 177.672,84.316 177.471 C 86.797 177.232,87.113 176.904,87.325 174.341 C 87.497 172.272,87.502 172.265,88.724 172.405 C 91.112 172.681,91.970 172.010,92.266 169.637 L 92.532 167.511 94.340 167.307 C 96.479 167.066,97.171 166.309,97.171 164.206 C 97.171 163.340,97.377 162.649,97.659 162.570 C 97.927 162.495,98.847 162.281,99.703 162.095 C 101.444 161.716,102.145 160.710,102.303 158.367 C 102.367 157.422,102.559 157.024,102.890 157.151 C 104.728 157.856,106.657 156.093,107.110 153.294 C 107.304 152.095,107.559 151.786,108.649 151.426 C 110.210 150.911,111.064 150.038,111.427 148.585 C 111.574 147.995,111.851 147.512,112.042 147.512 C 112.234 147.512,112.390 147.053,112.390 146.491 C 112.390 145.116,115.055 142.439,116.423 142.439 C 117.379 142.439,117.432 142.326,117.542 140.044 L 117.659 137.649 120.000 137.605 L 122.341 137.561 122.458 135.122 L 122.574 132.683 124.214 132.637 C 125.116 132.611,126.004 132.617,126.187 132.650 C 126.983 132.793,127.491 131.768,127.558 129.880 C 127.644 127.426,127.426 127.644,129.880 127.558 C 131.768 127.491,132.793 126.983,132.650 126.187 C 132.617 126.004,132.611 125.116,132.637 124.215 L 132.683 122.576 134.927 122.458 L 137.171 122.341 137.286 119.921 L 137.402 117.500 139.823 117.384 L 142.244 117.268 142.360 114.829 L 142.476 112.390 144.773 112.390 C 147.314 112.390,147.415 112.282,147.465 109.506 C 147.500 107.601,147.526 107.578,149.663 107.610 C 151.929 107.645,152.566 107.007,152.521 104.752 C 152.477 102.580,152.465 102.591,154.933 102.465 C 157.177 102.351,157.702 101.886,157.607 100.098 C 157.479 97.673,157.551 97.561,159.245 97.561 C 161.840 97.561,162.341 97.084,162.341 94.620 L 162.341 92.488 164.265 92.488 C 166.766 92.488,167.415 91.839,167.415 89.338 C 167.415 87.250,167.591 87.143,170.634 87.381 C 171.863 87.477,172.488 86.362,172.488 84.072 C 172.488 82.859,172.593 82.732,173.600 82.732 C 176.513 82.732,177.561 81.645,177.561 78.622 C 177.561 77.851,177.819 77.696,179.493 77.466 C 181.769 77.153,182.063 76.862,182.443 74.537 C 182.766 72.557,183.110 72.212,184.780 72.195 C 186.667 72.176,187.115 71.663,187.119 69.514 L 187.122 67.580 189.143 67.326 C 191.513 67.029,191.994 66.568,192.289 64.308 C 192.533 62.433,192.886 62.063,194.439 62.055 C 196.017 62.046,197.073 60.792,197.073 58.927 L 197.073 57.366 199.797 57.366 C 202.793 57.366,203.359 57.932,202.757 60.330 C 202.373 61.861,203.115 62.439,205.461 62.439 L 207.510 62.439 207.763 64.024 C 207.903 64.895,207.910 65.781,207.780 65.992 C 207.257 66.838,208.502 67.512,210.584 67.512 L 212.683 67.512 212.683 69.808 C 212.683 72.361,212.924 72.569,215.883 72.580 L 217.327 72.585 217.590 74.906 C 217.851 77.216,218.595 77.955,220.334 77.631 C 222.360 77.254,222.737 77.604,222.685 79.818 C 222.626 82.333,222.956 82.671,225.431 82.634 C 227.574 82.601,227.707 82.751,227.707 85.203 L 227.707 87.220 229.854 87.331 C 232.852 87.487,232.780 87.422,232.784 89.984 L 232.787 92.293 235.204 92.408 L 237.622 92.524 237.738 94.945 L 237.854 97.366 240.080 97.482 L 242.307 97.599 242.570 99.921 C 242.714 101.199,242.942 102.261,243.075 102.283 C 243.208 102.304,244.107 102.391,245.073 102.476 C 247.818 102.717,247.939 102.821,247.681 104.699 C 247.329 107.274,247.717 107.590,251.335 107.675 L 252.719 107.707 252.701 109.951 L 252.683 112.195 255.225 112.308 L 257.768 112.422 257.762 114.845 C 257.756 117.126,257.813 117.276,258.718 117.404 C 260.103 117.599,262.634 120.257,262.634 121.515 C 262.634 122.099,262.854 122.537,263.147 122.537 C 263.429 122.537,263.962 123.169,264.330 123.941 C 264.744 124.809,265.443 125.512,266.159 125.783 C 266.797 126.024,267.418 126.533,267.539 126.915 C 267.661 127.297,267.924 127.610,268.124 127.610 C 268.324 127.610,268.488 127.974,268.488 128.420 C 268.488 129.615,270.657 131.636,271.720 131.433 C 272.377 131.307,272.598 131.462,272.639 132.073 C 272.861 135.449,273.950 136.890,276.417 137.071 C 277.738 137.168,277.777 137.219,277.957 139.090 C 278.168 141.277,278.713 141.837,280.984 142.200 C 282.086 142.376,282.545 142.645,282.564 143.127 C 282.587 143.702,282.643 143.686,282.930 143.024 C 283.153 142.508,283.195 142.848,283.054 144.026 C 282.777 146.337,285.693 148.502,287.543 147.358 C 287.695 147.264,287.767 147.831,287.703 148.618 C 287.511 150.971,288.285 151.945,290.645 152.320 L 292.683 152.645 292.683 154.297 C 292.683 156.493,293.284 157.142,295.531 157.374 C 297.829 157.611,297.800 157.582,297.822 159.666 C 297.846 161.856,298.178 162.219,300.449 162.531 L 302.321 162.789 302.673 165.004 L 303.024 167.220 305.497 167.337 L 307.970 167.454 307.698 169.435 C 307.521 170.722,307.562 171.332,307.815 171.176 C 308.029 171.044,308.180 171.241,308.151 171.614 C 308.107 172.172,308.476 172.310,310.220 172.389 C 312.697 172.502,313.079 172.895,312.813 175.060 C 312.559 177.129,313.040 177.561,315.590 177.561 L 317.659 177.561 317.659 179.895 C 317.659 182.482,317.686 182.506,320.976 182.725 L 322.537 182.829 322.653 185.046 C 322.769 187.258,323.529 188.011,325.310 187.680 C 327.357 187.299,327.857 187.679,327.596 189.417 C 327.432 190.515,327.495 191.223,327.774 191.395 C 328.013 191.543,328.115 191.815,328.001 191.999 C 327.738 192.424,328.744 192.698,330.689 192.733 C 332.596 192.768,332.648 192.827,332.734 195.047 C 332.773 196.054,332.821 197.010,332.842 197.171 C 332.862 197.332,333.932 197.463,335.220 197.463 C 336.807 197.463,337.576 197.620,337.609 197.951 C 337.635 198.220,337.685 199.317,337.720 200.390 L 337.783 202.341 340.190 202.457 L 342.598 202.573 342.714 204.994 L 342.829 207.415 345.171 207.610 L 347.512 207.805 347.707 210.146 C 347.886 212.285,347.987 212.499,348.878 212.621 C 349.415 212.694,350.373 213.280,351.007 213.924 C 352.058 214.990,352.187 215.030,352.453 214.376 C 352.614 213.981,352.648 214.375,352.529 215.250 C 352.371 216.410,352.481 217.011,352.936 217.466 C 353.280 217.810,353.561 218.380,353.561 218.734 C 353.561 219.866,355.806 221.768,356.896 221.560 C 357.477 221.449,357.836 221.548,357.796 221.809 C 357.390 224.415,360.034 227.561,362.161 227.005 C 362.729 226.857,362.867 227.176,363.017 228.985 C 363.230 231.558,363.890 232.195,366.342 232.195 C 367.419 232.195,367.954 232.344,367.796 232.600 C 366.691 234.388,368.608 237.268,370.905 237.268 L 372.584 237.268 372.770 239.207 C 373.014 241.752,373.553 242.341,375.635 242.341 C 377.583 242.341,377.855 242.636,377.826 244.716 C 377.803 246.416,378.542 247.412,379.833 247.420 C 381.942 247.433,382.308 247.775,382.673 250.079 L 383.024 252.293 389.957 252.399 C 398.145 252.525,397.548 252.961,397.586 246.829 C 397.600 244.683,397.622 241.215,397.635 239.122 L 397.659 235.317 398.829 235.317 L 400.000 235.317 400.000 231.830 L 400.000 228.342 398.732 228.185 L 397.463 228.027 398.732 227.965 L 400.000 227.902 400.000 187.707 L 400.000 147.512 398.829 147.512 L 397.659 147.512 397.640 144.488 C 397.629 142.824,397.617 139.795,397.612 137.756 C 397.594 130.163,396.773 128.000,393.908 128.000 L 392.585 128.000 392.531 124.780 C 392.501 123.010,392.513 120.928,392.559 120.154 C 392.645 118.684,391.842 117.463,390.788 117.463 C 389.023 117.463,387.545 114.897,387.489 111.736 C 387.416 107.577,386.168 104.782,383.972 103.860 L 382.447 103.220 382.443 100.828 C 382.439 98.207,381.875 97.316,380.498 97.753 C 380.053 97.894,379.167 97.895,378.528 97.754 L 377.366 97.499 377.360 93.140 C 377.353 87.806,377.290 87.687,374.587 87.863 L 372.488 88.000 372.550 85.891 C 372.619 83.534,372.421 82.736,371.763 82.723 C 371.518 82.719,371.054 82.150,370.732 81.459 C 370.410 80.768,369.555 79.809,368.832 79.329 C 367.639 78.536,367.502 78.246,367.350 76.203 C 367.146 73.453,366.755 73.022,364.178 72.717 C 362.292 72.494,362.174 72.417,362.390 71.554 C 362.759 70.084,362.202 67.798,361.537 68.053 C 361.228 68.171,360.976 68.075,360.976 67.839 C 360.976 67.562,360.355 67.481,359.220 67.609 L 357.463 67.807 357.463 65.501 C 357.463 62.881,357.246 62.683,354.342 62.653 L 352.585 62.634 352.390 60.293 L 352.195 57.951 349.774 57.836 L 347.353 57.720 347.238 55.299 L 347.122 52.878 344.878 52.761 C 342.483 52.636,342.377 52.511,342.588 50.050 C 342.739 48.286,342.084 47.767,339.736 47.791 C 338.527 47.804,337.552 47.639,337.541 47.419 C 337.530 47.202,337.479 46.179,337.427 45.146 C 337.312 42.854,336.784 42.446,334.341 42.761 L 332.488 43.000 332.488 41.428 C 332.488 39.144,331.901 37.865,330.840 37.837 C 327.042 37.735,327.115 37.767,326.897 36.141 C 326.574 33.730,322.565 31.944,318.927 32.590 C 317.584 32.829,317.449 32.575,317.640 30.168 C 317.788 28.317,317.029 27.707,314.574 27.707 L 312.297 27.707 312.095 25.917 C 311.792 23.230,310.633 22.687,305.121 22.651 L 302.536 22.634 302.358 20.488 C 302.125 17.679,302.269 17.756,297.241 17.756 L 292.888 17.756 292.617 15.863 C 292.229 13.149,292.033 12.784,291.124 13.073 C 290.681 13.213,290.341 13.144,290.341 12.912 C 290.341 12.651,289.185 12.546,287.138 12.621 C 282.359 12.796,282.146 12.717,282.146 10.747 C 282.146 8.510,281.173 7.623,279.033 7.910 C 278.170 8.026,277.385 7.993,277.288 7.837 C 277.192 7.681,274.909 7.569,272.215 7.589 L 267.317 7.624 267.317 5.616 C 267.317 2.663,267.316 2.662,258.549 2.595 C 254.359 2.563,251.106 2.478,251.319 2.407 C 251.533 2.335,251.707 1.764,251.707 1.138 L 251.707 0.000 205.616 0.000 L 159.524 0.000 159.681 1.338 C 159.767 2.075,159.698 2.591,159.528 2.486 C 159.358 2.381,159.220 1.779,159.220 1.148 C 159.220 0.516,159.044 0.000,158.829 0.000 C 158.484 0.000,158.298 1.129,158.301 3.200 C 158.301 3.565,158.157 3.774,157.980 3.665 C 157.803 3.556,157.659 2.686,157.659 1.733 L 157.659 0.000 155.317 0.000 C 152.990 0.000,152.976 0.007,152.976 1.138 M263.411 6.825 C 263.676 7.145,264.076 7.293,264.300 7.155 C 264.542 7.005,264.588 7.094,264.414 7.376 C 264.193 7.734,263.900 7.701,263.195 7.239 C 262.387 6.710,262.296 6.707,262.493 7.218 C 262.616 7.541,262.523 7.805,262.286 7.805 C 262.048 7.805,261.854 7.556,261.854 7.252 C 261.854 6.948,261.634 6.611,261.366 6.502 C 261.098 6.394,261.339 6.292,261.903 6.275 C 262.467 6.258,263.146 6.505,263.411 6.825 M298.277 20.818 C 298.527 20.675,298.602 20.701,298.442 20.877 C 298.086 21.270,298.891 22.312,299.338 22.036 C 299.515 21.926,299.634 22.189,299.601 22.620 C 299.526 23.616,297.345 21.725,297.397 20.707 C 297.417 20.301,297.494 20.261,297.625 20.588 C 297.734 20.857,298.027 20.961,298.277 20.818 M301.840 22.933 C 301.963 23.256,301.868 23.349,301.588 23.176 C 301.283 22.987,301.219 23.115,301.393 23.566 C 301.714 24.403,301.022 24.022,300.521 23.086 C 300.237 22.557,300.319 22.411,300.899 22.411 C 301.306 22.411,301.729 22.646,301.840 22.933 M41.993 71.493 C 41.639 71.691,41.423 71.974,41.513 72.122 C 41.602 72.269,41.211 72.729,40.643 73.144 L 39.610 73.898 40.353 73.046 C 40.762 72.578,40.954 72.195,40.780 72.195 C 40.607 72.195,40.779 71.848,41.162 71.424 C 41.546 71.000,42.035 70.761,42.249 70.892 C 42.473 71.031,42.364 71.285,41.993 71.493 M179.480 72.293 C 179.390 72.346,178.847 72.804,178.272 73.310 C 177.347 74.124,177.240 74.146,177.334 73.505 C 177.392 73.106,177.628 72.780,177.858 72.780 C 178.088 72.780,178.408 72.649,178.569 72.488 C 178.730 72.327,179.037 72.195,179.252 72.195 C 179.467 72.195,179.569 72.239,179.480 72.293 M168.942 84.356 C 168.634 84.932,168.393 85.083,168.288 84.766 C 168.117 84.252,168.952 82.968,169.258 83.274 C 169.352 83.368,169.210 83.855,168.942 84.356 M375.610 93.268 C 375.221 93.698,374.623 94.038,374.281 94.024 C 373.856 94.007,373.925 93.892,374.497 93.661 C 374.958 93.475,375.451 93.135,375.593 92.905 C 375.735 92.676,375.956 92.488,376.084 92.488 C 376.211 92.488,375.998 92.839,375.610 93.268 M159.688 94.907 C 159.324 95.272,159.220 95.167,159.220 94.439 C 159.220 93.711,159.324 93.607,159.688 93.971 C 160.052 94.335,160.052 94.543,159.688 94.907 M17.926 110.274 C 17.432 110.869,16.777 110.670,16.786 109.928 C 16.790 109.649,16.943 109.697,17.171 110.049 C 17.517 110.584,17.735 110.321,17.598 109.532 C 17.567 109.355,17.730 109.327,17.961 109.469 C 18.255 109.651,18.244 109.891,17.926 110.274 M18.184 112.060 C 18.369 112.360,18.289 112.404,17.945 112.191 C 17.573 111.961,17.496 112.048,17.670 112.501 C 17.841 112.947,17.743 113.066,17.336 112.910 C 16.893 112.740,16.864 112.565,17.209 112.150 C 17.752 111.494,17.829 111.487,18.184 112.060 M283.128 137.766 C 283.264 137.986,283.230 138.117,283.053 138.058 C 282.876 137.999,282.705 138.127,282.673 138.341 C 282.641 138.556,282.786 138.683,282.995 138.624 C 283.204 138.566,283.259 138.706,283.116 138.936 C 282.935 139.229,282.691 139.217,282.302 138.894 C 281.881 138.545,281.854 138.304,282.189 137.899 C 282.720 137.260,282.808 137.248,283.128 137.766 M88.419 168.076 C 88.308 168.834,87.701 168.898,87.593 168.163 C 87.544 167.823,87.727 167.545,88.000 167.545 C 88.273 167.545,88.462 167.784,88.419 168.076 M81.419 178.051 C 81.645 178.427,81.572 178.425,81.100 178.042 C 80.477 177.537,79.070 177.784,79.413 178.338 C 79.516 178.506,79.296 178.883,78.923 179.175 C 78.316 179.651,78.298 179.638,78.751 179.059 C 79.092 178.622,79.124 178.328,78.847 178.158 C 78.622 178.018,78.267 178.354,78.058 178.903 C 77.849 179.453,77.454 179.900,77.180 179.896 C 76.785 179.892,76.787 179.824,77.190 179.569 C 77.469 179.392,77.725 178.885,77.758 178.442 C 77.800 177.884,78.040 177.679,78.539 177.775 C 78.934 177.852,79.355 177.662,79.473 177.354 C 79.710 176.737,80.882 177.157,81.419 178.051 M193.540 178.559 C 193.126 179.000,192.671 180.201,192.530 181.228 L 192.274 183.096 190.535 182.835 C 189.274 182.646,188.871 182.697,189.071 183.020 C 189.247 183.305,189.088 183.422,188.634 183.343 C 188.035 183.239,187.903 183.530,187.803 185.171 C 187.622 188.162,187.560 188.237,185.496 187.954 C 183.101 187.626,182.634 188.071,182.634 190.682 L 182.634 192.780 180.502 192.780 C 177.918 192.780,177.378 193.441,177.779 196.112 L 178.040 197.854 176.532 197.899 C 175.703 197.923,174.698 197.909,174.299 197.867 C 173.870 197.822,173.679 197.961,173.831 198.208 C 173.994 198.470,173.849 198.533,173.440 198.376 C 172.884 198.163,172.831 198.312,173.071 199.405 C 173.283 200.370,173.234 200.610,172.871 200.386 C 172.514 200.165,172.433 200.454,172.556 201.508 C 172.735 203.047,172.573 203.136,169.920 202.961 C 168.437 202.862,167.848 203.524,167.852 205.282 C 167.858 207.667,167.754 207.879,166.667 207.708 C 165.846 207.578,165.768 207.631,166.244 207.992 C 166.698 208.337,166.463 208.381,165.200 208.189 C 163.414 207.917,162.607 208.666,162.750 210.460 C 162.909 212.452,162.787 212.602,160.800 212.875 C 158.497 213.192,158.016 213.683,157.757 215.984 C 157.563 217.702,157.540 217.726,155.834 217.982 C 153.273 218.366,152.842 219.014,152.835 222.497 C 152.835 222.851,152.621 223.059,152.360 222.959 C 150.291 222.165,147.766 224.279,147.969 226.635 C 148.084 227.977,148.025 228.055,146.781 228.197 C 143.867 228.529,142.749 229.944,142.735 233.310 C 142.733 233.816,142.622 234.054,142.488 233.840 C 141.623 232.457,138.061 235.856,138.681 237.472 C 138.820 237.834,138.719 238.050,138.433 238.005 C 136.681 237.730,133.463 240.461,133.463 242.222 C 133.463 242.753,133.292 243.062,133.073 242.927 C 132.852 242.790,132.683 243.118,132.683 243.684 C 132.683 244.975,129.916 247.805,128.653 247.805 C 127.794 247.805,127.748 247.936,127.794 250.278 L 127.842 252.751 125.677 252.859 C 124.486 252.918,123.319 252.976,123.082 252.988 C 122.811 253.001,122.667 253.938,122.692 255.522 L 122.732 258.036 120.672 257.794 C 119.041 257.602,118.566 257.674,118.388 258.139 C 118.264 258.463,118.041 258.652,117.893 258.561 C 117.744 258.469,117.633 259.356,117.646 260.531 C 117.661 261.979,117.855 262.787,118.249 263.036 C 118.568 263.237,118.639 263.405,118.407 263.409 C 118.174 263.412,117.856 263.287,117.700 263.131 C 117.545 262.976,116.445 262.832,115.257 262.813 C 112.726 262.772,112.180 263.501,112.607 266.347 L 112.852 267.982 110.377 267.942 L 107.902 267.902 107.707 270.439 L 107.512 272.976 105.171 272.999 L 102.829 273.022 102.713 275.438 L 102.597 277.854 100.664 277.902 C 99.601 277.929,98.515 277.973,98.249 278.000 C 97.930 278.032,97.765 278.797,97.762 280.272 L 97.756 282.495 95.346 282.753 C 93.384 282.964,92.978 283.125,93.168 283.619 C 93.323 284.022,93.246 284.130,92.938 283.939 C 92.591 283.725,92.537 284.187,92.724 285.774 L 92.973 287.894 90.618 287.849 C 87.711 287.794,87.599 287.905,87.654 290.804 L 87.698 293.150 85.562 292.883 C 84.077 292.697,83.504 292.744,83.684 293.035 C 83.838 293.284,83.721 293.369,83.398 293.245 C 82.976 293.083,82.837 293.536,82.781 295.257 C 82.686 298.159,82.578 298.283,80.367 298.021 C 78.563 297.808,77.525 298.256,77.691 299.178 C 77.724 299.362,77.730 300.259,77.705 301.171 L 77.659 302.829 75.560 302.829 C 72.961 302.829,72.504 303.300,72.826 305.648 C 73.112 307.733,72.927 307.900,70.257 307.960 C 67.845 308.014,67.310 308.705,67.694 311.264 L 67.950 312.976 66.463 313.014 C 63.078 313.102,63.026 313.119,62.998 314.146 C 62.983 314.683,62.831 315.432,62.661 315.811 C 62.491 316.190,62.433 316.814,62.534 317.198 C 62.684 317.774,62.520 317.868,61.602 317.734 C 60.959 317.639,60.488 317.750,60.488 317.995 C 60.488 318.257,60.047 318.331,59.336 318.189 C 58.214 317.965,57.518 318.871,57.778 320.220 C 58.195 322.384,57.793 322.927,55.769 322.931 C 52.747 322.936,52.644 323.209,52.771 330.916 L 52.878 337.366 55.070 337.481 L 57.262 337.597 57.607 340.018 L 57.951 342.439 60.411 342.556 L 62.871 342.672 62.618 344.363 C 62.456 345.444,62.521 346.151,62.798 346.322 C 63.037 346.470,63.114 346.781,62.970 347.014 C 62.814 347.267,62.890 347.325,63.159 347.159 C 63.407 347.006,63.610 347.067,63.610 347.294 C 63.610 347.535,64.513 347.707,65.780 347.707 L 67.950 347.707 67.679 349.519 C 67.469 350.914,67.518 351.262,67.892 351.031 C 68.240 350.816,68.307 350.950,68.130 351.508 C 67.872 352.319,69.200 352.765,71.902 352.776 C 72.856 352.780,72.976 352.924,72.976 354.072 C 72.976 356.486,75.612 357.845,80.132 357.759 C 82.373 357.716,82.717 358.104,82.726 360.683 L 82.732 362.537 85.268 362.537 L 87.805 362.537 87.805 364.054 C 87.805 366.816,88.567 367.275,93.531 367.511 L 97.854 367.716 97.805 369.822 C 97.742 372.522,98.038 372.703,102.439 372.664 C 108.216 372.613,107.652 372.376,107.785 374.911 C 107.926 377.586,108.073 377.659,113.431 377.717 C 118.091 377.768,118.299 377.857,118.008 379.681 C 117.697 381.626,118.506 382.416,120.906 382.511 C 121.910 382.551,123.083 382.621,123.512 382.668 C 123.941 382.714,126.180 382.770,128.488 382.791 L 132.683 382.829 132.683 384.511 C 132.683 387.885,132.504 387.847,148.780 387.891 L 152.976 387.902 152.976 389.073 C 152.976 389.984,153.149 390.244,153.756 390.244 C 154.656 390.244,154.908 388.117,154.049 387.771 C 153.780 387.662,154.009 387.560,154.556 387.543 C 155.467 387.515,155.537 387.627,155.391 388.878 C 155.235 390.216,155.260 390.244,156.640 390.244 C 157.959 390.244,158.052 390.163,158.100 388.976 L 158.152 387.707 158.439 389.073 L 158.727 390.439 158.778 389.194 C 158.806 388.509,158.968 387.863,159.138 387.758 C 159.308 387.653,159.376 388.169,159.290 388.905 L 159.134 390.244 193.689 390.244 L 228.243 390.244 228.401 388.976 L 228.558 387.707 228.620 388.976 L 228.683 390.244 234.927 390.244 L 241.171 390.244 241.171 389.099 C 241.171 388.150,240.987 387.927,240.098 387.792 C 239.435 387.691,239.733 387.607,240.878 387.571 L 242.732 387.512 242.732 388.878 C 242.732 390.885,244.933 390.973,245.181 388.976 L 245.339 387.707 245.401 388.976 C 245.489 390.754,247.024 390.847,247.024 389.073 L 247.024 387.902 250.244 387.881 C 252.015 387.869,255.220 387.857,257.366 387.853 C 260.074 387.848,261.533 387.676,262.133 387.289 C 262.608 386.983,263.243 386.732,263.543 386.732 C 264.509 386.732,266.079 385.197,266.343 383.995 L 266.599 382.829 269.982 382.791 C 271.843 382.771,274.000 382.782,274.775 382.817 C 276.738 382.906,277.463 382.059,277.463 379.679 L 277.463 377.756 281.268 377.726 C 289.304 377.663,291.314 376.986,291.761 374.193 C 292.021 372.565,292.131 372.520,295.474 372.672 C 296.258 372.708,297.224 372.564,297.620 372.352 C 298.017 372.141,298.897 371.762,299.576 371.511 C 300.715 371.090,301.071 370.576,301.805 368.293 C 302.005 367.669,304.471 367.304,306.623 367.578 C 307.073 367.636,307.643 366.230,307.490 365.438 C 307.451 365.237,307.441 364.502,307.466 363.805 L 307.512 362.537 311.707 362.531 C 316.641 362.524,316.853 362.427,317.310 359.984 C 317.735 357.710,317.606 357.840,319.457 357.807 C 322.236 357.756,322.341 357.658,322.341 355.096 L 322.341 352.780 324.000 352.748 C 326.699 352.695,329.807 351.987,330.740 351.213 C 331.054 350.952,331.489 350.078,331.707 349.271 C 332.113 347.763,332.964 347.317,335.440 347.317 C 336.574 347.317,336.902 346.796,337.161 344.585 L 337.366 342.829 339.375 342.584 C 342.058 342.257,342.148 342.172,342.457 339.701 L 342.724 337.561 344.583 337.561 C 347.351 337.561,347.447 337.316,347.224 330.828 C 346.982 323.807,346.806 323.446,343.418 323.043 C 342.573 322.942,342.410 322.674,342.170 320.985 C 341.840 318.668,341.047 317.946,339.032 318.130 C 337.390 318.280,337.171 317.995,337.171 315.703 C 337.171 313.671,336.322 312.885,334.300 313.045 L 332.711 313.171 332.307 310.909 C 331.848 308.344,331.395 307.917,329.123 307.908 L 327.514 307.902 327.320 305.886 C 327.088 303.473,326.394 302.829,324.023 302.829 L 322.341 302.829 322.335 300.976 C 322.327 298.369,321.959 297.958,319.627 297.955 L 317.661 297.951 317.621 296.585 C 317.553 294.278,317.112 293.265,316.190 293.297 C 315.731 293.313,315.445 293.181,315.555 293.005 C 315.664 292.828,315.041 292.683,314.169 292.683 C 312.650 292.683,312.584 292.631,312.546 291.415 C 312.483 289.345,312.020 288.202,311.202 288.093 C 307.527 287.604,307.512 287.596,307.512 286.227 C 307.512 283.512,306.994 282.927,304.595 282.927 L 302.439 282.927 302.439 280.859 C 302.439 278.276,302.019 277.854,299.453 277.854 L 297.403 277.854 297.287 275.420 L 297.171 272.987 295.119 272.945 C 292.613 272.895,292.496 272.788,292.590 270.634 C 292.687 268.396,291.966 267.633,290.021 267.916 C 288.172 268.185,287.598 267.768,287.549 266.117 C 287.485 263.995,287.227 262.974,286.818 263.227 C 286.609 263.355,286.439 263.269,286.439 263.034 C 286.439 262.748,285.797 262.692,284.488 262.866 L 282.537 263.125 282.493 261.806 C 282.470 261.081,282.471 260.137,282.496 259.707 C 282.584 258.219,281.906 257.756,279.640 257.756 L 277.496 257.756 277.382 255.415 L 277.268 253.073 274.847 252.957 L 272.427 252.842 272.311 250.421 L 272.195 248.000 269.774 247.884 L 267.353 247.769 267.238 245.364 L 267.122 242.959 265.366 242.899 C 262.269 242.794,262.433 242.921,262.502 240.683 C 262.582 238.070,262.277 237.739,259.889 237.854 C 257.607 237.964,257.630 237.987,257.518 235.487 C 257.397 232.803,257.261 232.554,256.057 232.815 C 255.260 232.988,255.158 232.945,255.610 232.627 C 256.445 232.039,255.421 230.244,253.805 229.463 C 252.607 228.885,251.993 227.928,251.496 225.870 C 251.183 224.575,250.694 224.149,248.744 223.474 C 247.374 222.999,247.201 222.784,246.939 221.231 C 246.597 219.193,245.503 218.146,243.714 218.146 C 242.484 218.146,242.434 218.083,242.185 216.212 C 241.886 213.957,241.162 213.073,239.614 213.073 C 237.635 213.073,237.268 212.735,237.268 210.913 C 237.268 208.618,236.480 207.867,234.434 208.212 C 233.410 208.386,232.961 208.339,233.124 208.076 C 233.260 207.856,233.183 207.614,232.953 207.537 C 232.723 207.461,232.435 206.611,232.312 205.650 C 232.037 203.486,231.568 202.864,230.275 202.946 C 227.689 203.110,227.636 203.070,227.401 200.791 C 227.107 197.945,227.019 197.854,224.562 197.854 L 222.439 197.854 222.439 196.072 C 222.439 193.273,221.999 192.780,219.498 192.780 L 217.366 192.780 217.320 191.317 C 217.294 190.512,217.305 189.621,217.343 189.337 C 217.493 188.235,216.561 187.726,214.831 187.963 C 213.108 188.199,211.842 187.191,212.508 186.113 C 212.987 185.338,212.296 182.940,211.663 183.182 C 211.321 183.314,211.184 183.240,211.331 183.002 C 211.498 182.731,210.925 182.685,209.595 182.862 C 208.048 183.067,207.602 183.006,207.573 182.587 C 207.553 182.291,207.505 181.225,207.466 180.218 C 207.370 177.743,207.642 177.839,200.568 177.795 C 194.714 177.759,194.244 177.810,193.540 178.559 M74.927 183.786 C 74.927 183.986,74.724 184.274,74.476 184.428 C 74.197 184.600,74.132 184.535,74.304 184.255 C 74.457 184.008,74.397 183.805,74.169 183.805 C 73.942 183.805,73.756 184.098,73.756 184.455 C 73.756 185.170,73.256 184.858,73.141 184.070 C 73.101 183.799,73.487 183.543,73.998 183.500 C 74.509 183.458,74.927 183.587,74.927 183.786 M187.162 192.842 C 186.453 193.854,186.321 193.522,186.958 192.331 C 187.190 191.898,187.472 191.634,187.584 191.746 C 187.695 191.858,187.506 192.351,187.162 192.842 M182.779 196.521 C 183.021 196.466,183.088 196.494,182.927 196.584 C 182.766 196.674,182.634 197.017,182.634 197.346 C 182.634 197.748,182.383 197.879,181.872 197.745 C 181.453 197.636,181.025 197.747,180.921 197.993 C 180.817 198.238,180.765 198.000,180.805 197.463 C 180.888 196.358,181.483 195.766,181.996 196.278 C 182.184 196.467,182.537 196.577,182.779 196.521 M224.260 202.754 C 224.260 203.128,224.124 203.207,223.887 202.970 C 223.682 202.765,223.273 202.690,222.977 202.804 C 222.681 202.917,222.439 202.854,222.439 202.663 C 222.439 202.473,222.849 202.283,223.350 202.241 C 223.934 202.193,224.260 202.376,224.260 202.754 M54.045 205.366 C 53.918 206.585,53.916 206.586,53.330 206.100 C 53.042 205.861,52.663 205.795,52.487 205.955 C 52.311 206.114,52.299 206.016,52.460 205.737 C 52.699 205.323,52.863 205.322,53.359 205.734 C 53.886 206.171,53.929 206.122,53.689 205.363 C 53.536 204.882,53.574 204.488,53.774 204.488 C 53.974 204.488,54.096 204.883,54.045 205.366 M367.249 227.415 C 367.266 227.576,367.341 228.038,367.417 228.441 C 367.520 228.983,367.441 229.061,367.118 228.738 C 366.563 228.182,366.396 227.122,366.864 227.122 C 367.059 227.122,367.233 227.254,367.249 227.415 M23.557 237.071 C 23.434 237.392,23.176 237.557,22.983 237.438 C 22.791 237.319,22.634 237.437,22.634 237.701 C 22.634 237.964,22.521 238.066,22.383 237.928 C 22.097 237.642,22.951 236.488,23.450 236.488 C 23.632 236.488,23.680 236.750,23.557 237.071 M393.756 247.610 C 393.252 248.146,392.701 248.585,392.531 248.585 C 392.119 248.585,393.851 246.728,394.312 246.675 C 394.510 246.653,394.260 247.073,393.756 247.610 M299.707 280.780 C 299.978 281.107,300.021 281.366,299.803 281.366 C 299.588 281.366,299.194 281.102,298.927 280.780 C 298.656 280.454,298.614 280.195,298.831 280.195 C 299.046 280.195,299.440 280.459,299.707 280.780 M328.976 312.864 C 328.976 312.971,328.693 312.951,328.347 312.818 C 327.869 312.634,327.781 312.741,327.980 313.264 C 328.179 313.788,328.133 313.843,327.784 313.497 C 327.200 312.918,327.648 312.160,328.403 312.449 C 328.718 312.570,328.976 312.757,328.976 312.864 M242.042 389.073 C 242.042 389.824,242.122 390.132,242.220 389.756 C 242.318 389.380,242.318 388.766,242.220 388.390 C 242.122 388.015,242.042 388.322,242.042 389.073 " stroke="none" fill="#04d464" fill-rule="evenodd"></path><path id="path1" d="M157.659 1.733 C 157.659 4.121,158.219 4.265,158.354 1.912 C 158.418 0.787,158.298 0.000,158.061 0.000 C 157.840 0.000,157.659 0.780,157.659 1.733 M159.220 1.148 C 159.220 1.779,159.358 2.381,159.528 2.486 C 159.698 2.591,159.767 2.075,159.681 1.338 C 159.489 -0.302,159.220 -0.413,159.220 1.148 M150.732 2.621 C 151.322 2.710,152.288 2.710,152.878 2.621 C 153.468 2.532,152.985 2.458,151.805 2.458 C 150.624 2.458,150.141 2.532,150.732 2.621 M251.610 2.617 C 252.093 2.710,252.883 2.710,253.366 2.617 C 253.849 2.524,253.454 2.448,252.488 2.448 C 251.522 2.448,251.127 2.524,251.610 2.617 M261.366 6.502 C 261.634 6.611,261.854 6.948,261.854 7.252 C 261.854 7.556,262.048 7.805,262.286 7.805 C 262.523 7.805,262.616 7.541,262.493 7.218 C 262.296 6.707,262.387 6.710,263.195 7.239 C 263.900 7.701,264.193 7.734,264.414 7.376 C 264.588 7.094,264.542 7.005,264.300 7.155 C 264.076 7.293,263.676 7.145,263.411 6.825 C 263.146 6.505,262.467 6.258,261.903 6.275 C 261.339 6.292,261.098 6.394,261.366 6.502 M127.713 7.695 C 128.306 7.784,129.184 7.782,129.664 7.689 C 130.144 7.597,129.659 7.523,128.585 7.526 C 127.512 7.529,127.119 7.605,127.713 7.695 M272.103 7.695 C 272.696 7.784,273.574 7.782,274.054 7.689 C 274.534 7.597,274.049 7.523,272.976 7.526 C 271.902 7.529,271.510 7.605,272.103 7.695 M297.397 20.707 C 297.345 21.725,299.526 23.616,299.601 22.620 C 299.634 22.189,299.515 21.926,299.338 22.036 C 298.891 22.312,298.086 21.270,298.442 20.877 C 298.602 20.701,298.527 20.675,298.277 20.818 C 298.027 20.961,297.734 20.857,297.625 20.588 C 297.494 20.261,297.417 20.301,297.397 20.707 M300.521 23.086 C 301.022 24.022,301.714 24.403,301.393 23.566 C 301.219 23.115,301.283 22.987,301.588 23.176 C 301.868 23.349,301.963 23.256,301.840 22.933 C 301.729 22.646,301.306 22.411,300.899 22.411 C 300.319 22.411,300.237 22.557,300.521 23.086 M66.146 42.537 L 64.585 42.816 66.244 42.871 C 67.156 42.902,67.902 42.751,67.902 42.537 C 67.902 42.322,67.859 42.171,67.805 42.202 C 67.751 42.232,67.005 42.383,66.146 42.537 M202.627 59.317 C 202.627 60.068,202.707 60.376,202.806 60.000 C 202.904 59.624,202.904 59.010,202.806 58.634 C 202.707 58.259,202.627 58.566,202.627 59.317 M41.162 71.424 C 40.779 71.848,40.607 72.195,40.780 72.195 C 40.954 72.195,40.762 72.578,40.353 73.046 L 39.610 73.898 40.643 73.144 C 41.211 72.729,41.602 72.269,41.513 72.122 C 41.423 71.974,41.639 71.691,41.993 71.493 C 42.364 71.285,42.473 71.031,42.249 70.892 C 42.035 70.761,41.546 71.000,41.162 71.424 M178.569 72.488 C 178.408 72.649,178.088 72.780,177.858 72.780 C 177.628 72.780,177.392 73.106,177.334 73.505 C 177.240 74.146,177.347 74.124,178.272 73.310 C 178.847 72.804,179.390 72.346,179.480 72.293 C 179.569 72.239,179.467 72.195,179.252 72.195 C 179.037 72.195,178.730 72.327,178.569 72.488 M32.418 81.463 C 32.439 82.578,32.517 82.742,32.747 82.153 C 33.026 81.439,32.888 80.000,32.540 80.000 C 32.458 80.000,32.403 80.659,32.418 81.463 M168.604 83.685 C 168.339 84.005,168.196 84.491,168.288 84.766 C 168.393 85.083,168.634 84.932,168.942 84.356 C 169.516 83.284,169.297 82.850,168.604 83.685 M375.593 92.905 C 375.451 93.135,374.958 93.475,374.497 93.661 C 373.925 93.892,373.856 94.007,374.281 94.024 C 374.623 94.038,375.221 93.698,375.610 93.268 C 375.998 92.839,376.211 92.488,376.084 92.488 C 375.956 92.488,375.735 92.676,375.593 92.905 M159.220 94.439 C 159.220 95.167,159.324 95.272,159.688 94.907 C 160.052 94.543,160.052 94.335,159.688 93.971 C 159.324 93.607,159.220 93.711,159.220 94.439 M247.505 104.195 C 247.505 104.946,247.585 105.254,247.684 104.878 C 247.782 104.502,247.782 103.888,247.684 103.512 C 247.585 103.137,247.505 103.444,247.505 104.195 M17.598 109.532 C 17.735 110.321,17.517 110.584,17.171 110.049 C 16.943 109.697,16.790 109.649,16.786 109.928 C 16.777 110.670,17.432 110.869,17.926 110.274 C 18.244 109.891,18.255 109.651,17.961 109.469 C 17.730 109.327,17.567 109.355,17.598 109.532 M17.209 112.150 C 16.864 112.565,16.893 112.740,17.336 112.910 C 17.743 113.066,17.841 112.947,17.670 112.501 C 17.496 112.048,17.573 111.961,17.945 112.191 C 18.289 112.404,18.369 112.360,18.184 112.060 C 17.829 111.487,17.752 111.494,17.209 112.150 M7.513 125.073 C 7.517 125.932,7.597 126.237,7.691 125.752 C 7.784 125.266,7.780 124.564,7.683 124.191 C 7.585 123.817,7.509 124.215,7.513 125.073 M282.189 137.899 C 281.854 138.304,281.881 138.545,282.302 138.894 C 282.691 139.217,282.935 139.229,283.116 138.936 C 283.259 138.706,283.204 138.566,282.995 138.624 C 282.786 138.683,282.641 138.556,282.673 138.341 C 282.705 138.127,282.876 137.999,283.053 138.058 C 283.230 138.117,283.264 137.986,283.128 137.766 C 282.808 137.248,282.720 137.260,282.189 137.899 M2.412 145.634 C 2.342 147.828,2.327 147.855,1.073 148.010 L -0.195 148.168 1.085 148.230 C 2.611 148.305,2.831 147.890,2.630 145.316 L 2.482 143.415 2.412 145.634 M0.683 152.861 C 1.166 152.954,1.956 152.954,2.439 152.861 C 2.922 152.768,2.527 152.692,1.561 152.692 C 0.595 152.692,0.200 152.768,0.683 152.861 M0.488 153.635 C 0.863 153.733,1.478 153.733,1.854 153.635 C 2.229 153.537,1.922 153.456,1.171 153.456 C 0.420 153.456,0.112 153.537,0.488 153.635 M87.593 168.163 C 87.701 168.898,88.308 168.834,88.419 168.076 C 88.462 167.784,88.273 167.545,88.000 167.545 C 87.727 167.545,87.544 167.823,87.593 168.163 M312.676 174.439 C 312.676 175.190,312.756 175.498,312.854 175.122 C 312.953 174.746,312.953 174.132,312.854 173.756 C 312.756 173.380,312.676 173.688,312.676 174.439 M79.473 177.354 C 79.355 177.662,78.934 177.852,78.539 177.775 C 78.040 177.679,77.800 177.884,77.758 178.442 C 77.725 178.885,77.469 179.392,77.190 179.569 C 76.787 179.824,76.785 179.892,77.180 179.896 C 77.454 179.900,77.849 179.453,78.058 178.903 C 78.267 178.354,78.622 178.018,78.847 178.158 C 79.124 178.328,79.092 178.622,78.751 179.059 C 78.298 179.638,78.316 179.651,78.923 179.175 C 79.296 178.883,79.516 178.506,79.413 178.338 C 79.070 177.784,80.477 177.537,81.100 178.042 C 81.572 178.425,81.645 178.427,81.419 178.051 C 80.882 177.157,79.710 176.737,79.473 177.354 M198.341 177.848 C 199.361 177.928,201.029 177.928,202.049 177.848 C 203.068 177.767,202.234 177.702,200.195 177.702 C 198.156 177.702,197.322 177.767,198.341 177.848 M208.098 182.903 C 208.473 183.001,209.088 183.001,209.463 182.903 C 209.839 182.805,209.532 182.725,208.780 182.725 C 208.029 182.725,207.722 182.805,208.098 182.903 M73.141 184.070 C 73.256 184.858,73.756 185.170,73.756 184.455 C 73.756 184.098,73.942 183.805,74.169 183.805 C 74.397 183.805,74.457 184.008,74.304 184.255 C 74.132 184.535,74.197 184.600,74.476 184.428 C 75.246 183.952,74.972 183.420,73.998 183.500 C 73.487 183.543,73.101 183.799,73.141 184.070 M185.463 187.976 C 185.839 188.074,186.454 188.074,186.829 187.976 C 187.205 187.878,186.898 187.798,186.146 187.798 C 185.395 187.798,185.088 187.878,185.463 187.976 M213.561 187.976 C 213.937 188.074,214.551 188.074,214.927 187.976 C 215.302 187.878,214.995 187.798,214.244 187.798 C 213.493 187.798,213.185 187.878,213.561 187.976 M186.958 192.331 C 186.321 193.522,186.453 193.854,187.162 192.842 C 187.506 192.351,187.695 191.858,187.584 191.746 C 187.472 191.634,187.190 191.898,186.958 192.331 M181.265 196.211 C 181.052 196.363,180.845 196.927,180.805 197.463 C 180.765 198.000,180.817 198.238,180.921 197.993 C 181.025 197.747,181.453 197.636,181.872 197.745 C 182.383 197.879,182.634 197.748,182.634 197.346 C 182.634 197.017,182.766 196.674,182.927 196.584 C 183.088 196.494,183.021 196.466,182.779 196.521 C 182.537 196.577,182.184 196.467,181.996 196.278 C 181.807 196.090,181.478 196.059,181.265 196.211 M222.439 202.663 C 222.439 202.854,222.681 202.917,222.977 202.804 C 223.273 202.690,223.682 202.765,223.887 202.970 C 224.124 203.207,224.260 203.128,224.260 202.754 C 224.260 202.376,223.934 202.193,223.350 202.241 C 222.849 202.283,222.439 202.473,222.439 202.663 M53.689 205.363 C 53.929 206.122,53.886 206.171,53.359 205.734 C 52.863 205.322,52.699 205.323,52.460 205.737 C 52.299 206.016,52.311 206.114,52.487 205.955 C 52.663 205.795,53.042 205.861,53.330 206.100 C 53.916 206.586,53.918 206.585,54.045 205.366 C 54.096 204.883,53.974 204.488,53.774 204.488 C 53.574 204.488,53.536 204.882,53.689 205.363 M0.488 219.976 C 0.863 220.074,1.478 220.074,1.854 219.976 C 2.229 219.878,1.922 219.798,1.171 219.798 C 0.420 219.798,0.112 219.878,0.488 219.976 M366.595 227.711 C 366.642 228.035,366.878 228.497,367.118 228.738 C 367.441 229.061,367.520 228.983,367.417 228.441 C 367.341 228.038,367.266 227.576,367.249 227.415 C 367.233 227.254,367.059 227.122,366.864 227.122 C 366.668 227.122,366.547 227.387,366.595 227.711 M398.146 228.171 C 398.522 228.270,399.137 228.270,399.512 228.171 C 399.888 228.073,399.580 227.993,398.829 227.993 C 398.078 227.993,397.771 228.073,398.146 228.171 M2.429 233.812 C 2.494 234.115,1.991 234.418,1.171 234.570 L -0.195 234.824 1.025 234.875 C 2.320 234.930,3.496 234.033,2.741 233.567 C 2.511 233.424,2.370 233.535,2.429 233.812 M0.033 236.237 C 0.122 236.314,0.898 236.485,1.756 236.617 C 2.819 236.780,3.130 236.737,2.732 236.483 C 2.199 236.143,-0.346 235.912,0.033 236.237 M22.626 237.083 C 22.355 237.410,22.246 237.790,22.383 237.928 C 22.521 238.066,22.634 237.964,22.634 237.701 C 22.634 237.437,22.791 237.319,22.983 237.438 C 23.176 237.557,23.434 237.392,23.557 237.071 C 23.848 236.313,23.259 236.320,22.626 237.083 M0.000 237.620 C 0.000 237.856,0.615 238.049,1.366 238.049 C 2.117 238.049,2.732 238.231,2.732 238.454 C 2.732 238.689,2.962 238.647,3.278 238.357 C 4.006 237.686,3.834 237.573,1.763 237.367 C 0.635 237.254,0.000 237.345,0.000 237.620 M2.432 242.732 C 2.432 243.483,2.512 243.790,2.610 243.415 C 2.709 243.039,2.709 242.424,2.610 242.049 C 2.512 241.673,2.432 241.980,2.432 242.732 M393.087 247.651 C 392.612 248.165,392.362 248.585,392.531 248.585 C 392.701 248.585,393.252 248.146,393.756 247.610 C 394.260 247.073,394.510 246.653,394.312 246.675 C 394.114 246.698,393.562 247.137,393.087 247.651 M120.883 257.837 C 121.368 257.930,122.070 257.927,122.444 257.829 C 122.817 257.731,122.420 257.655,121.561 257.659 C 120.702 257.664,120.397 257.744,120.883 257.837 M283.024 262.903 C 283.400 263.001,284.015 263.001,284.390 262.903 C 284.766 262.805,284.459 262.725,283.707 262.725 C 282.956 262.725,282.649 262.805,283.024 262.903 M112.390 266.894 C 112.390 267.306,112.171 267.731,111.902 267.839 C 111.611 267.957,111.690 268.048,112.098 268.067 C 112.574 268.088,112.780 267.803,112.780 267.122 C 112.780 266.585,112.693 266.146,112.585 266.146 C 112.478 266.146,112.390 266.483,112.390 266.894 M298.927 280.780 C 299.194 281.102,299.588 281.366,299.803 281.366 C 300.021 281.366,299.978 281.107,299.707 280.780 C 299.440 280.459,299.046 280.195,298.831 280.195 C 298.614 280.195,298.656 280.454,298.927 280.780 M92.488 286.410 C 92.488 287.170,92.259 287.612,91.805 287.731 C 91.291 287.865,91.339 287.921,92.000 287.955 C 92.752 287.993,92.878 287.804,92.878 286.634 C 92.878 285.883,92.790 285.268,92.683 285.268 C 92.576 285.268,92.488 285.782,92.488 286.410 M87.415 292.072 C 87.415 292.382,86.938 292.703,86.341 292.794 C 85.343 292.945,85.356 292.960,86.537 293.015 C 87.564 293.062,87.805 292.925,87.805 292.293 C 87.805 291.863,87.717 291.512,87.610 291.512 C 87.502 291.512,87.415 291.764,87.415 292.072 M80.297 298.032 C 80.783 298.125,81.485 298.122,81.858 298.024 C 82.231 297.927,81.834 297.850,80.976 297.855 C 80.117 297.859,79.812 297.939,80.297 298.032 M72.676 306.341 C 72.676 307.093,72.756 307.400,72.854 307.024 C 72.953 306.649,72.953 306.034,72.854 305.659 C 72.756 305.283,72.676 305.590,72.676 306.341 M327.578 312.636 C 327.440 312.860,327.532 313.248,327.784 313.497 C 328.133 313.843,328.179 313.788,327.980 313.264 C 327.781 312.741,327.869 312.634,328.347 312.818 C 328.693 312.951,328.976 312.971,328.976 312.864 C 328.976 312.442,327.815 312.253,327.578 312.636 M154.049 387.771 C 154.317 387.879,154.537 388.480,154.537 389.106 C 154.537 390.705,155.198 390.528,155.391 388.878 C 155.537 387.627,155.467 387.515,154.556 387.543 C 154.009 387.560,153.780 387.662,154.049 387.771 M158.981 388.069 C 158.864 388.376,158.833 389.034,158.913 389.533 C 159.020 390.199,159.110 390.052,159.256 388.976 C 159.460 387.461,159.352 387.103,158.981 388.069 M240.098 387.792 C 240.987 387.927,241.171 388.150,241.171 389.099 C 241.171 390.669,241.939 390.555,242.003 388.976 L 242.054 387.707 242.341 389.073 L 242.629 390.439 242.680 388.976 L 242.732 387.512 240.878 387.571 C 239.733 387.607,239.435 387.691,240.098 387.792 M152.676 389.073 C 152.676 389.824,152.756 390.132,152.854 389.756 C 152.953 389.380,152.953 388.766,152.854 388.390 C 152.756 388.015,152.676 388.322,152.676 389.073 M158.139 389.073 C 158.139 389.824,158.220 390.132,158.318 389.756 C 158.416 389.380,158.416 388.766,158.318 388.390 C 158.220 388.015,158.139 388.322,158.139 389.073 M228.383 389.073 C 228.383 389.824,228.464 390.132,228.562 389.756 C 228.660 389.380,228.660 388.766,228.562 388.390 C 228.464 388.015,228.383 388.322,228.383 389.073 M245.164 389.073 C 245.164 389.824,245.244 390.132,245.342 389.756 C 245.440 389.380,245.440 388.766,245.342 388.390 C 245.244 388.015,245.164 388.322,245.164 389.073 " stroke="none" fill="#04d46c" fill-rule="evenodd"></path><path id="path2" d="" stroke="none" fill="#08d464" fill-rule="evenodd"></path><path id="path3" d="" stroke="none" fill="#08d464" fill-rule="evenodd"></path><path id="path4" d="" stroke="none" fill="#08d464" fill-rule="evenodd"></path></g></svg>